<svg width="29" height="32" viewBox="0 0 29 32" fill="none" xmlns="http://www.w3.org/2000/svg">
<g clip-path="url(#clip0_1_15)">
<path fill-rule="evenodd" clip-rule="evenodd" d="M14.3218 0.00189532C14.4173 0.00684131 14.5102 0.0389902 14.64 0.103288C14.7403 0.155221 14.9459 0.268979 15.0928 0.358006C15.2396 0.444562 15.4599 0.57563 15.5822 0.647347C15.7046 0.719064 15.9543 0.867445 16.1403 0.97873C16.3238 1.09001 16.4804 1.17904 16.4879 1.17904C16.4952 1.17904 16.5294 1.19883 16.5686 1.22603C16.6052 1.25076 16.7448 1.33484 16.8794 1.41398C17.014 1.49311 17.2832 1.65139 17.479 1.76762C17.6749 1.88384 17.8731 2.00254 17.9195 2.03222C17.9661 2.0619 18.1546 2.17566 18.3356 2.28446C18.5168 2.39328 18.8497 2.59606 19.0772 2.73456C19.3024 2.87058 19.4933 2.98434 19.5031 2.98434C19.5153 2.98434 19.6328 3.0511 19.7674 3.13024C19.902 3.20938 20.061 3.30088 20.1223 3.33549C20.1835 3.37011 20.3695 3.47893 20.5384 3.57786C20.7072 3.67677 20.9984 3.84987 21.1869 3.96117C21.3754 4.07245 21.8429 4.34942 22.2271 4.57941C22.6115 4.80693 23.0837 5.09133 23.2796 5.21003C23.4754 5.32874 23.7128 5.4697 23.8057 5.5241C23.8987 5.5785 24.1141 5.70462 24.2831 5.80355C24.4519 5.90246 24.682 6.036 24.797 6.1003C24.9119 6.16461 25.2694 6.36986 25.5925 6.55781C25.9155 6.74576 26.2581 6.94606 26.3511 7.00294C26.4442 7.0623 26.5615 7.13155 26.6081 7.15875C26.6547 7.18595 26.875 7.31208 27.0976 7.44067C27.3203 7.56926 27.5797 7.71765 27.6728 7.76958C27.7658 7.8215 27.9322 7.92043 28.0399 7.99214C28.1476 8.06139 28.2944 8.17021 28.5 8.33837L28.4853 15.7944C28.478 19.8947 28.4609 23.3742 28.4314 23.8045L28.3336 23.9059C28.2797 23.9627 28.1427 24.0618 28.0276 24.1259C27.9126 24.1928 27.5822 24.3882 27.2934 24.5613C27.0047 24.7344 26.6741 24.9322 26.5592 24.9989C26.4442 25.0682 26.1357 25.2462 25.8739 25.3971C25.6119 25.5454 25.2743 25.7408 25.1273 25.8299C24.9805 25.9189 24.8264 26.0104 24.7848 26.0326C24.7431 26.0549 24.6502 26.1093 24.5767 26.1538C24.5033 26.1984 24.425 26.2429 24.4053 26.2552C24.3858 26.2675 24.2707 26.3344 24.1484 26.4061C24.026 26.4754 23.7079 26.6632 23.4386 26.819C23.1694 26.9749 22.8512 27.1603 22.7288 27.232C22.6065 27.3013 22.3202 27.4694 22.0925 27.603C21.8649 27.7341 21.4243 27.9962 21.1136 28.1842C20.8027 28.3696 20.1149 28.7778 19.5839 29.0869C19.0527 29.396 18.3798 29.7891 18.0909 29.9598C17.802 30.1304 17.3665 30.3877 17.1242 30.5334C16.8819 30.6794 16.5024 30.9045 16.2798 31.0331C16.0571 31.1616 15.7487 31.3397 15.5945 31.4238C15.4403 31.5104 15.2029 31.6414 15.0683 31.7131C14.9337 31.7874 14.7574 31.8813 14.5298 32L14.3952 31.9456C14.3218 31.9134 14.0844 31.7947 13.869 31.676C13.6536 31.5598 13.3795 31.4066 13.2572 31.3373C13.1348 31.2654 12.9879 31.1814 12.9267 31.1469C12.8655 31.1122 12.6012 30.9589 12.3393 30.8056C12.0775 30.6522 11.7471 30.4568 11.6051 30.3728C11.4632 30.2886 11.1058 30.076 10.8097 29.9029C10.5135 29.7274 9.84782 29.3366 9.32895 29.0299C8.81009 28.7258 8.37445 28.4661 8.3622 28.4562C8.34996 28.4462 8.28878 28.4093 8.22759 28.3771C8.16641 28.3424 7.96327 28.2213 7.77481 28.1099C7.58636 27.9962 7.26084 27.8058 7.05281 27.6821C6.84477 27.561 6.49233 27.3533 6.26962 27.2197C6.0469 27.0886 5.68957 26.876 5.47418 26.7498C5.25881 26.6237 4.88434 26.4037 4.64205 26.2602C4.39974 26.1168 4.07423 25.9262 3.92004 25.8349C3.76585 25.7434 3.59452 25.6443 3.54069 25.6123C3.48685 25.5802 3.32776 25.4861 3.1858 25.4021C3.04385 25.3179 2.82357 25.1869 2.69631 25.1126C2.56904 25.036 2.10647 24.759 1.66837 24.497C1.23027 24.2347 0.80686 23.9752 0.728541 23.9206C0.628194 23.8515 0.57435 23.7971 0.559665 23.7451C0.549875 23.703 0.527848 23.0254 0.515611 22.2366C0.500926 21.3736 0.496031 18.3738 0.503373 14.7187C0.510716 10.5517 0.522953 8.56094 0.542533 8.40019C0.557218 8.2716 0.581692 8.15042 0.598825 8.13064C0.61351 8.11085 0.765253 8.00451 0.934128 7.89323C1.103 7.78194 1.51663 7.52475 1.85193 7.31949C2.18968 7.1167 2.72323 6.79522 3.03896 6.60726C3.35469 6.41933 3.64837 6.24621 3.68753 6.22395C3.7267 6.2017 4.00326 6.036 4.2994 5.86043C4.59554 5.68237 4.89902 5.50184 4.97246 5.45733C5.04588 5.41282 5.41544 5.19272 5.79236 4.96768C6.16927 4.74262 6.59268 4.49038 6.73464 4.4063C6.87659 4.32222 7.11399 4.18126 7.26084 4.09222C7.40769 4.00568 7.89963 3.71386 8.34996 3.4443C8.80031 3.17475 9.21882 2.92251 9.28001 2.88541C9.34119 2.84832 9.63734 2.67026 9.94083 2.48973C10.2443 2.3092 10.7167 2.0248 10.9932 1.85912C11.2698 1.69342 11.7911 1.37936 12.1558 1.16173C12.5205 0.944107 13.0589 0.622618 13.355 0.444562C13.6512 0.266506 13.9302 0.103288 13.9743 0.0785582C14.0183 0.0538283 14.0844 0.0241523 14.1211 0.0142603C14.1578 0.00189532 14.2484 -0.00305068 14.3218 0.00189532ZM13.7466 4.98746C13.5851 5.07402 13.2596 5.25454 13.0246 5.39056C12.7897 5.52658 12.4642 5.71451 12.3026 5.81096C12.1411 5.90741 11.7128 6.16461 11.3481 6.3847C10.9835 6.6048 10.5821 6.84467 10.4548 6.92134C10.3275 6.99554 10.0852 7.13896 9.91635 7.23789C9.74748 7.3368 9.50517 7.48024 9.3779 7.55443C9.25063 7.63109 9.02302 7.76464 8.87618 7.85118C8.72932 7.94021 8.55067 8.05891 8.47968 8.11333C8.4087 8.17021 8.35242 8.22709 8.34996 8.23944C8.34996 8.25429 8.39891 8.31117 8.46011 8.37051C8.52129 8.42739 8.68283 8.54858 8.82234 8.64008C8.95939 8.73157 9.32162 8.95909 9.62754 9.14704C9.93594 9.33499 10.1905 9.4883 10.1978 9.4883C10.2052 9.4883 10.2786 9.53035 10.3618 9.58475C10.4474 9.63669 10.6384 9.75045 10.7852 9.83947C10.932 9.92851 11.1376 10.0472 11.238 10.1066C11.3383 10.1659 11.6076 10.3242 11.8376 10.4602C12.0677 10.5962 12.5229 10.8682 12.8533 11.0661C13.1837 11.2639 13.7222 11.5904 14.0526 11.7882C14.383 11.9885 14.9092 12.3026 15.2225 12.4905C15.5333 12.676 15.7927 12.8269 15.7976 12.8269C15.8001 12.8269 15.9127 12.8887 16.0473 12.9629C16.1819 13.0395 16.3385 13.1484 16.3948 13.2052C16.4731 13.2844 16.5074 13.3388 16.527 13.4327C16.5417 13.5045 16.5612 14.1079 16.5734 14.8671C16.5857 15.5892 16.5956 18.0746 16.5979 20.3942C16.5979 22.7139 16.6101 24.9222 16.6225 25.3032C16.6347 25.684 16.6542 26.003 16.664 26.0128C16.6738 26.0227 16.7398 26.0104 16.806 25.9882C16.8745 25.9659 17.0336 25.8867 17.1608 25.8126C17.2881 25.7408 17.6014 25.5554 17.8584 25.4021C18.1155 25.2486 18.4605 25.0435 18.6294 24.9445C18.7982 24.8456 19.0405 24.7046 19.1678 24.628C19.295 24.5538 19.4786 24.445 19.5717 24.3882C19.6646 24.3312 19.9632 24.1531 20.2324 23.9925C20.5016 23.8317 20.8272 23.6387 20.9544 23.5597C21.0817 23.483 21.3241 23.3371 21.4929 23.2382C21.6617 23.1392 21.9579 22.9611 22.1538 22.8474C22.3495 22.7312 22.6236 22.568 22.7655 22.4838C22.9076 22.3998 23.1596 22.2515 23.3286 22.1525C23.4974 22.0512 23.7006 21.9325 23.7813 21.883C23.8621 21.836 24.0162 21.7395 24.1239 21.6678C24.2316 21.5936 24.3736 21.4824 24.4372 21.4155L24.5547 21.2968C24.5326 18.04 24.5228 16.1134 24.5155 14.9165C24.5081 13.7196 24.4959 12.3298 24.491 11.8253C24.4837 11.3233 24.469 10.8608 24.4592 10.8015C24.4446 10.7026 24.4299 10.6828 24.3074 10.6061C24.2341 10.5591 23.9354 10.3811 23.6467 10.2104C23.3579 10.0423 23.0226 9.84442 22.9002 9.7727C22.7777 9.70099 22.4596 9.51304 22.1905 9.35229C21.9213 9.19155 21.652 9.0308 21.5907 8.99371C21.5296 8.95662 21.3484 8.84781 21.1869 8.75136C21.0254 8.65738 20.695 8.46202 20.4527 8.32106C20.2104 8.17762 19.7381 7.89818 19.4003 7.69786C19.065 7.49507 18.6783 7.26755 18.5437 7.18842C18.4091 7.10928 18.1398 6.95102 17.9441 6.83726C17.7482 6.72102 17.5402 6.59986 17.479 6.56523C17.4178 6.53061 17.2146 6.4119 17.0262 6.29814C16.8379 6.18686 16.5783 6.03354 16.4511 5.95686C16.3238 5.88269 16.1794 5.79859 16.1329 5.77139C16.0864 5.74419 15.9763 5.67989 15.8882 5.63043C15.8001 5.5785 15.6238 5.4771 15.4966 5.40293C15.3693 5.32874 15.1417 5.19766 14.9948 5.1111C14.848 5.02454 14.6326 4.90584 14.5176 4.8465C14.4026 4.78714 14.2973 4.74016 14.2851 4.74016C14.2728 4.74262 14.2117 4.76242 14.1505 4.78715C14.0893 4.80941 13.9082 4.9009 13.7466 4.98746ZM4.42912 11.573C4.41443 11.9663 4.41199 13.9125 4.41934 16.524C4.42912 18.8907 4.4438 20.9358 4.45359 21.0669L4.47073 21.3067C4.64205 21.4848 4.81338 21.6109 4.96022 21.7024C5.10706 21.7965 5.41055 21.977 5.63328 22.1056C5.856 22.2341 6.25248 22.4666 6.51436 22.62C6.77624 22.7733 7.15071 22.9933 7.34651 23.1096C7.5423 23.2258 7.7944 23.3766 7.90942 23.4434C8.02445 23.5126 8.17865 23.6018 8.25207 23.6462C8.32549 23.6883 8.82234 23.9826 9.35343 24.3016C9.88453 24.6181 10.5625 25.0237 10.8586 25.1992C11.1548 25.3749 11.5243 25.5925 11.6785 25.6814C11.8327 25.7706 12.0848 25.909 12.2341 25.9882C12.4789 26.1142 12.5131 26.1266 12.5278 26.0896C12.5376 26.0648 12.5498 23.708 12.5523 20.8517C12.5596 16.7021 12.5547 15.651 12.5302 15.6263C12.5131 15.6065 12.4226 15.5447 12.3271 15.4878C12.2317 15.4284 11.8082 15.1688 11.3848 14.9116C10.9614 14.6519 10.2174 14.2043 9.73279 13.915C9.24819 13.6256 8.72443 13.314 8.57024 13.2225C8.41605 13.131 8.09053 12.9381 7.84824 12.7972C7.60594 12.6537 7.35875 12.5103 7.29755 12.4757C7.23636 12.4411 7.05526 12.3347 6.89372 12.2408C6.73219 12.1468 6.34549 11.9193 6.03711 11.7387C5.72873 11.5582 5.36894 11.348 5.24168 11.2738C5.11441 11.1996 4.91616 11.0908 4.80114 11.029C4.6861 10.9672 4.56863 10.9078 4.53681 10.8954C4.50498 10.8831 4.47807 10.8856 4.46827 10.9004C4.45848 10.9152 4.44135 11.2169 4.42912 11.573Z" fill="black" fill-opacity="0.99"/>
</g>
<defs>
<clipPath id="clip0_1_15">
<rect width="28" height="32" fill="white" transform="translate(0.5)"/>
</clipPath>
</defs>
</svg>
