<svg width="1869" height="2115" viewBox="0 0 1869 2115" fill="none" xmlns="http://www.w3.org/2000/svg">
<mask id="path-1-inside-1_1_453" fill="white">
<path fill-rule="evenodd" clip-rule="evenodd" d="M922.605 0.125269C928.976 0.452168 935.184 2.57701 943.843 6.8267C950.541 10.2591 964.264 17.7778 974.066 23.662C983.868 29.3827 998.571 38.0456 1006.74 42.7856C1014.91 47.5256 1031.57 57.3327 1043.99 64.6879C1056.24 72.0431 1066.69 77.9273 1067.19 77.9273C1067.68 77.9273 1069.96 79.2349 1072.58 81.0328C1075.02 82.6673 1084.34 88.2246 1093.32 93.455C1102.31 98.6854 1120.28 109.147 1133.35 116.828C1146.42 124.51 1159.66 132.356 1162.75 134.317C1165.86 136.279 1178.44 143.798 1190.53 150.989C1202.62 158.181 1224.84 171.584 1240.03 180.737C1255.06 189.727 1267.8 197.246 1268.46 197.246C1269.27 197.246 1277.11 201.659 1286.1 206.889C1295.09 212.12 1305.7 218.168 1309.79 220.455C1313.87 222.743 1326.29 229.935 1337.56 236.474C1348.83 243.011 1368.27 254.452 1380.85 261.808C1393.43 269.163 1424.64 287.47 1450.28 302.67C1475.94 317.708 1507.46 336.505 1520.54 344.351C1533.61 352.196 1549.45 361.513 1555.66 365.108C1561.86 368.704 1576.24 377.04 1587.52 383.578C1598.79 390.116 1614.15 398.942 1621.82 403.192C1629.5 407.442 1653.36 421.008 1674.92 433.43C1696.49 445.853 1719.35 459.091 1725.56 462.851C1731.77 466.774 1739.61 471.351 1742.72 473.149C1745.82 474.947 1760.53 483.283 1775.39 491.782C1790.25 500.281 1807.57 510.088 1813.79 513.521C1819.99 516.953 1831.1 523.491 1838.29 528.231C1845.48 532.808 1855.28 540 1869 551.114L1868.02 1043.91C1867.53 1314.92 1866.39 1544.89 1864.42 1573.33L1857.89 1580.03C1854.3 1583.79 1845.15 1590.33 1837.47 1594.57C1829.79 1598.99 1807.74 1611.9 1788.46 1623.35C1769.19 1634.79 1747.12 1647.86 1739.45 1652.27C1731.77 1656.85 1711.18 1668.62 1693.71 1678.59C1676.22 1688.39 1653.68 1701.31 1643.87 1707.2C1634.07 1713.08 1623.79 1719.12 1621.01 1720.59C1618.23 1722.06 1612.02 1725.66 1607.12 1728.6C1602.22 1731.55 1596.99 1734.49 1595.68 1735.3C1594.38 1736.12 1586.69 1740.54 1578.53 1745.28C1570.36 1749.86 1549.12 1762.27 1531.15 1772.57C1513.18 1782.87 1491.94 1795.13 1483.77 1799.86C1475.61 1804.44 1456.5 1815.56 1441.3 1824.39C1426.11 1833.05 1396.7 1850.37 1375.96 1862.8C1355.2 1875.05 1309.29 1902.03 1273.85 1922.46C1238.39 1942.89 1193.47 1968.87 1174.19 1980.16C1154.91 1991.43 1125.84 2008.44 1109.67 2018.07C1093.49 2027.71 1068.16 2042.59 1053.3 2051.1C1038.43 2059.59 1017.85 2071.36 1007.56 2076.92C997.265 2082.64 981.417 2091.3 972.433 2096.04C963.447 2100.95 951.685 2107.15 936.492 2115L927.506 2111.4C922.605 2109.28 906.758 2101.43 892.382 2093.59C878.005 2085.91 859.708 2075.78 851.54 2071.2C843.371 2066.45 833.569 2060.9 829.485 2058.61C825.4 2056.32 807.757 2046.19 790.276 2036.06C772.796 2025.92 750.741 2013 741.266 2007.45C731.791 2001.89 707.939 1987.84 688.17 1976.39C668.403 1964.79 623.967 1938.97 589.332 1918.7C554.699 1898.59 525.619 1881.43 524.802 1880.77C523.985 1880.12 519.901 1877.68 515.816 1875.55C511.733 1873.26 498.173 1865.25 485.593 1857.89C473.014 1850.37 451.286 1837.79 437.4 1829.61C423.513 1821.61 399.988 1807.88 385.122 1799.05C370.255 1790.39 346.404 1776.34 332.027 1767.99C317.651 1759.66 292.655 1745.12 276.482 1735.63C260.308 1726.16 238.58 1713.56 228.288 1707.52C217.995 1701.48 206.559 1694.93 202.966 1692.81C199.372 1690.69 188.753 1684.47 179.277 1678.92C169.802 1673.36 155.098 1664.7 146.603 1659.79C138.108 1654.72 107.232 1636.42 77.9887 1619.1C48.7457 1601.76 20.4829 1584.61 15.2551 1581C8.55698 1576.44 4.96286 1572.84 3.98265 1569.4C3.32918 1566.62 1.85886 1521.84 1.04201 1469.7C0.0618013 1412.66 -0.264936 1214.39 0.22517 972.814C0.715276 697.401 1.53211 565.825 2.83907 555.2C3.81928 546.701 5.45297 538.692 6.59655 537.385C7.57676 536.076 17.7056 529.048 28.9781 521.693C40.2505 514.337 67.8598 497.339 90.2413 483.772C112.786 470.37 148.4 449.121 169.475 436.699C190.55 424.277 210.154 412.835 212.768 411.364C215.382 409.893 233.843 398.942 253.61 387.338C273.377 375.569 293.635 363.637 298.537 360.695C303.438 357.753 328.106 343.206 353.265 328.333C378.424 313.458 406.686 296.786 416.162 291.229C425.637 285.672 441.484 276.355 451.286 270.47C461.088 264.75 493.926 245.463 523.985 227.647C554.045 209.831 581.981 193.16 586.066 190.707C590.149 188.256 609.918 176.487 630.175 164.555C650.433 152.624 681.963 133.827 700.424 122.876C718.884 111.925 753.682 91.1668 778.024 76.7832C802.365 62.3996 838.307 41.1511 858.074 29.3827C877.842 17.6144 896.466 6.8267 899.406 5.19221C902.347 3.55772 906.758 1.59632 909.209 0.942517C911.66 0.125269 917.704 -0.201631 922.605 0.125269ZM884.214 329.64C873.431 335.361 851.703 347.293 836.019 356.282C820.337 365.272 798.608 377.694 787.826 384.068C777.043 390.443 748.454 407.442 724.112 421.989C699.77 436.536 672.977 452.39 664.482 457.458C655.987 462.361 639.813 471.841 628.541 478.379C617.269 484.917 601.095 494.397 592.6 499.301C584.105 504.367 568.912 513.194 559.11 518.914C549.307 524.798 537.382 532.644 532.644 536.24C527.906 540 524.149 543.759 523.985 544.576C523.985 545.557 527.253 549.316 531.337 553.239C535.421 556.998 546.204 565.007 555.516 571.055C564.664 577.102 588.843 592.14 609.263 604.562C629.849 616.985 646.839 627.118 647.328 627.118C647.819 627.118 652.72 629.897 658.275 633.492C663.992 636.925 676.735 644.444 686.537 650.328C696.339 656.213 710.062 664.057 716.76 667.98C723.458 671.903 741.43 682.364 756.785 691.353C772.142 700.343 802.529 718.323 824.584 731.399C846.639 744.475 882.579 766.05 904.634 779.126C926.689 792.366 961.814 813.123 982.725 825.546C1003.47 837.804 1020.79 847.776 1021.12 847.776C1021.28 847.776 1028.79 851.862 1037.78 856.764C1046.77 861.832 1057.22 869.024 1060.97 872.783C1066.21 878.014 1068.49 881.609 1069.8 887.82C1070.78 892.561 1072.08 932.442 1072.9 982.621C1073.72 1030.35 1074.38 1194.62 1074.54 1347.93C1074.54 1501.25 1075.35 1647.2 1076.18 1672.38C1076.99 1697.55 1078.29 1718.64 1078.95 1719.28C1079.6 1719.94 1084.01 1719.12 1088.43 1717.65C1092.99 1716.19 1103.62 1710.95 1112.11 1706.05C1120.61 1701.31 1141.52 1689.05 1158.67 1678.92C1175.83 1668.78 1198.87 1655.22 1210.14 1648.67C1221.4 1642.14 1237.58 1632.82 1246.08 1627.76C1254.57 1622.85 1266.82 1615.66 1273.03 1611.9C1279.24 1608.14 1299.17 1596.37 1317.14 1585.75C1335.11 1575.13 1356.84 1562.37 1365.33 1557.15C1373.83 1552.08 1390.01 1542.44 1401.27 1535.9C1412.54 1529.36 1432.31 1517.59 1445.39 1510.07C1458.45 1502.39 1476.75 1491.6 1486.22 1486.04C1495.71 1480.49 1512.53 1470.69 1523.81 1464.14C1535.07 1457.45 1548.64 1449.6 1554.03 1446.33C1559.42 1443.22 1569.71 1436.85 1576.89 1432.11C1584.08 1427.2 1593.57 1419.85 1597.8 1415.43L1605.65 1407.59C1604.18 1192.33 1603.52 1065 1603.04 985.89C1602.54 906.78 1601.73 814.921 1601.4 781.578C1600.91 748.398 1599.93 717.832 1599.27 713.91C1598.3 707.372 1597.32 706.064 1589.15 700.998C1584.25 697.892 1564.31 686.123 1545.04 674.846C1525.76 663.73 1503.38 650.654 1495.21 645.915C1487.04 641.175 1465.8 628.753 1447.84 618.128C1429.87 607.504 1411.9 596.879 1407.81 594.428C1403.73 591.977 1391.63 584.785 1380.85 578.41C1370.07 572.198 1348.02 559.286 1331.84 549.97C1315.67 540.489 1284.14 522.02 1261.6 508.78C1239.22 495.377 1213.4 480.34 1204.42 475.109C1195.43 469.879 1177.46 459.419 1164.39 451.9C1151.32 444.218 1137.44 436.209 1133.35 433.921C1129.26 431.632 1115.7 423.787 1103.12 416.268C1090.55 408.913 1073.23 398.779 1064.74 393.711C1056.24 388.809 1046.6 383.251 1043.5 381.453C1040.39 379.655 1033.04 375.405 1027.16 372.136C1021.28 368.704 1009.52 362.002 1001.02 357.1C992.527 352.196 977.334 343.533 967.531 337.812C957.729 332.091 943.352 324.245 935.674 320.323C927.997 316.4 920.971 313.295 920.155 313.295C919.338 313.458 915.254 314.766 911.169 316.401C907.085 317.872 894.996 323.919 884.214 329.64ZM262.269 764.906C261.288 790.895 261.125 919.529 261.616 1092.13C262.269 1248.56 263.249 1383.73 263.902 1392.39L265.046 1408.24C276.482 1420.01 287.918 1428.34 297.72 1434.39C307.521 1440.61 327.779 1452.54 342.646 1461.04C357.513 1469.53 383.978 1484.9 401.459 1495.04C418.939 1505.17 443.935 1519.71 457.004 1527.4C470.074 1535.08 486.901 1545.05 494.579 1549.46C502.257 1554.04 512.55 1559.93 517.451 1562.87C522.352 1565.65 555.516 1585.1 590.967 1606.18C626.417 1627.1 671.671 1653.91 691.438 1665.51C711.206 1677.12 735.874 1691.5 746.167 1697.38C756.459 1703.27 773.286 1712.42 783.252 1717.65C799.588 1725.99 801.875 1726.8 802.856 1724.36C803.509 1722.72 804.326 1566.95 804.489 1378.17C804.98 1103.9 804.653 1034.43 803.019 1032.8C801.876 1031.49 795.83 1027.41 789.459 1023.65C783.088 1019.72 754.825 1002.56 726.562 985.564C698.3 968.4 648.636 938.817 616.289 919.693C583.942 900.569 548.981 879.974 538.688 873.927C528.396 867.88 506.668 855.13 490.495 845.814C474.321 836.333 457.821 826.854 453.737 824.566C449.652 822.277 437.564 815.249 426.781 809.037C415.998 802.826 390.186 787.789 369.602 775.857C349.018 763.925 325.002 750.032 316.507 745.128C308.012 740.226 294.779 733.034 287.101 728.947C279.422 724.861 271.581 720.938 269.457 720.121C267.333 719.304 265.536 719.467 264.882 720.447C264.229 721.429 263.085 741.369 262.269 764.906Z"/>
</mask>
<g filter="url(#filter0_i_1_453)">
<path fill-rule="evenodd" clip-rule="evenodd" d="M922.605 0.125269C928.976 0.452168 935.184 2.57701 943.843 6.8267C950.541 10.2591 964.264 17.7778 974.066 23.662C983.868 29.3827 998.571 38.0456 1006.74 42.7856C1014.91 47.5256 1031.57 57.3327 1043.99 64.6879C1056.24 72.0431 1066.69 77.9273 1067.19 77.9273C1067.68 77.9273 1069.96 79.2349 1072.58 81.0328C1075.02 82.6673 1084.34 88.2246 1093.32 93.455C1102.31 98.6854 1120.28 109.147 1133.35 116.828C1146.42 124.51 1159.66 132.356 1162.75 134.317C1165.86 136.279 1178.44 143.798 1190.53 150.989C1202.62 158.181 1224.84 171.584 1240.03 180.737C1255.06 189.727 1267.8 197.246 1268.46 197.246C1269.27 197.246 1277.11 201.659 1286.1 206.889C1295.09 212.12 1305.7 218.168 1309.79 220.455C1313.87 222.743 1326.29 229.935 1337.56 236.474C1348.83 243.011 1368.27 254.452 1380.85 261.808C1393.43 269.163 1424.64 287.47 1450.28 302.67C1475.94 317.708 1507.46 336.505 1520.54 344.351C1533.61 352.196 1549.45 361.513 1555.66 365.108C1561.86 368.704 1576.24 377.04 1587.52 383.578C1598.79 390.116 1614.15 398.942 1621.82 403.192C1629.5 407.442 1653.36 421.008 1674.92 433.43C1696.49 445.853 1719.35 459.091 1725.56 462.851C1731.77 466.774 1739.61 471.351 1742.72 473.149C1745.82 474.947 1760.53 483.283 1775.39 491.782C1790.25 500.281 1807.57 510.088 1813.79 513.521C1819.99 516.953 1831.1 523.491 1838.29 528.231C1845.48 532.808 1855.28 540 1869 551.114L1868.02 1043.91C1867.53 1314.92 1866.39 1544.89 1864.42 1573.33L1857.89 1580.03C1854.3 1583.79 1845.15 1590.33 1837.47 1594.57C1829.79 1598.99 1807.74 1611.9 1788.46 1623.35C1769.19 1634.79 1747.12 1647.86 1739.45 1652.27C1731.77 1656.85 1711.18 1668.62 1693.71 1678.59C1676.22 1688.39 1653.68 1701.31 1643.87 1707.2C1634.07 1713.08 1623.79 1719.12 1621.01 1720.59C1618.23 1722.06 1612.02 1725.66 1607.12 1728.6C1602.22 1731.55 1596.99 1734.49 1595.68 1735.3C1594.38 1736.12 1586.69 1740.54 1578.53 1745.28C1570.36 1749.86 1549.12 1762.27 1531.15 1772.57C1513.18 1782.87 1491.94 1795.13 1483.77 1799.86C1475.61 1804.44 1456.5 1815.56 1441.3 1824.39C1426.11 1833.05 1396.7 1850.37 1375.96 1862.8C1355.2 1875.05 1309.29 1902.03 1273.85 1922.46C1238.39 1942.89 1193.47 1968.87 1174.19 1980.16C1154.91 1991.43 1125.84 2008.44 1109.67 2018.07C1093.49 2027.71 1068.16 2042.59 1053.3 2051.1C1038.43 2059.59 1017.85 2071.36 1007.56 2076.92C997.265 2082.64 981.417 2091.3 972.433 2096.04C963.447 2100.95 951.685 2107.15 936.492 2115L927.506 2111.4C922.605 2109.28 906.758 2101.43 892.382 2093.59C878.005 2085.91 859.708 2075.78 851.54 2071.2C843.371 2066.45 833.569 2060.9 829.485 2058.61C825.4 2056.32 807.757 2046.19 790.276 2036.06C772.796 2025.92 750.741 2013 741.266 2007.45C731.791 2001.89 707.939 1987.84 688.17 1976.39C668.403 1964.79 623.967 1938.97 589.332 1918.7C554.699 1898.59 525.619 1881.43 524.802 1880.77C523.985 1880.12 519.901 1877.68 515.816 1875.55C511.733 1873.26 498.173 1865.25 485.593 1857.89C473.014 1850.37 451.286 1837.79 437.4 1829.61C423.513 1821.61 399.988 1807.88 385.122 1799.05C370.255 1790.39 346.404 1776.34 332.027 1767.99C317.651 1759.66 292.655 1745.12 276.482 1735.63C260.308 1726.16 238.58 1713.56 228.288 1707.52C217.995 1701.48 206.559 1694.93 202.966 1692.81C199.372 1690.69 188.753 1684.47 179.277 1678.92C169.802 1673.36 155.098 1664.7 146.603 1659.79C138.108 1654.72 107.232 1636.42 77.9887 1619.1C48.7457 1601.76 20.4829 1584.61 15.2551 1581C8.55698 1576.44 4.96286 1572.84 3.98265 1569.4C3.32918 1566.62 1.85886 1521.84 1.04201 1469.7C0.0618013 1412.66 -0.264936 1214.39 0.22517 972.814C0.715276 697.401 1.53211 565.825 2.83907 555.2C3.81928 546.701 5.45297 538.692 6.59655 537.385C7.57676 536.076 17.7056 529.048 28.9781 521.693C40.2505 514.337 67.8598 497.339 90.2413 483.772C112.786 470.37 148.4 449.121 169.475 436.699C190.55 424.277 210.154 412.835 212.768 411.364C215.382 409.893 233.843 398.942 253.61 387.338C273.377 375.569 293.635 363.637 298.537 360.695C303.438 357.753 328.106 343.206 353.265 328.333C378.424 313.458 406.686 296.786 416.162 291.229C425.637 285.672 441.484 276.355 451.286 270.47C461.088 264.75 493.926 245.463 523.985 227.647C554.045 209.831 581.981 193.16 586.066 190.707C590.149 188.256 609.918 176.487 630.175 164.555C650.433 152.624 681.963 133.827 700.424 122.876C718.884 111.925 753.682 91.1668 778.024 76.7832C802.365 62.3996 838.307 41.1511 858.074 29.3827C877.842 17.6144 896.466 6.8267 899.406 5.19221C902.347 3.55772 906.758 1.59632 909.209 0.942517C911.66 0.125269 917.704 -0.201631 922.605 0.125269ZM884.214 329.64C873.431 335.361 851.703 347.293 836.019 356.282C820.337 365.272 798.608 377.694 787.826 384.068C777.043 390.443 748.454 407.442 724.112 421.989C699.77 436.536 672.977 452.39 664.482 457.458C655.987 462.361 639.813 471.841 628.541 478.379C617.269 484.917 601.095 494.397 592.6 499.301C584.105 504.367 568.912 513.194 559.11 518.914C549.307 524.798 537.382 532.644 532.644 536.24C527.906 540 524.149 543.759 523.985 544.576C523.985 545.557 527.253 549.316 531.337 553.239C535.421 556.998 546.204 565.007 555.516 571.055C564.664 577.102 588.843 592.14 609.263 604.562C629.849 616.985 646.839 627.118 647.328 627.118C647.819 627.118 652.72 629.897 658.275 633.492C663.992 636.925 676.735 644.444 686.537 650.328C696.339 656.213 710.062 664.057 716.76 667.98C723.458 671.903 741.43 682.364 756.785 691.353C772.142 700.343 802.529 718.323 824.584 731.399C846.639 744.475 882.579 766.05 904.634 779.126C926.689 792.366 961.814 813.123 982.725 825.546C1003.47 837.804 1020.79 847.776 1021.12 847.776C1021.28 847.776 1028.79 851.862 1037.78 856.764C1046.77 861.832 1057.22 869.024 1060.97 872.783C1066.21 878.014 1068.49 881.609 1069.8 887.82C1070.78 892.561 1072.08 932.442 1072.9 982.621C1073.72 1030.35 1074.38 1194.62 1074.54 1347.93C1074.54 1501.25 1075.35 1647.2 1076.18 1672.38C1076.99 1697.55 1078.29 1718.64 1078.95 1719.28C1079.6 1719.94 1084.01 1719.12 1088.43 1717.65C1092.99 1716.19 1103.62 1710.95 1112.11 1706.05C1120.61 1701.31 1141.52 1689.05 1158.67 1678.92C1175.83 1668.78 1198.87 1655.22 1210.14 1648.67C1221.4 1642.14 1237.58 1632.82 1246.08 1627.76C1254.57 1622.85 1266.82 1615.66 1273.03 1611.9C1279.24 1608.14 1299.17 1596.37 1317.14 1585.75C1335.11 1575.13 1356.84 1562.37 1365.33 1557.15C1373.83 1552.08 1390.01 1542.44 1401.27 1535.9C1412.54 1529.36 1432.31 1517.59 1445.39 1510.07C1458.45 1502.39 1476.75 1491.6 1486.22 1486.04C1495.71 1480.49 1512.53 1470.69 1523.81 1464.14C1535.07 1457.45 1548.64 1449.6 1554.03 1446.33C1559.42 1443.22 1569.71 1436.85 1576.89 1432.11C1584.08 1427.2 1593.57 1419.85 1597.8 1415.43L1605.65 1407.59C1604.18 1192.33 1603.52 1065 1603.04 985.89C1602.54 906.78 1601.73 814.921 1601.4 781.578C1600.91 748.398 1599.93 717.832 1599.27 713.91C1598.3 707.372 1597.32 706.064 1589.15 700.998C1584.25 697.892 1564.31 686.123 1545.04 674.846C1525.76 663.73 1503.38 650.654 1495.21 645.915C1487.04 641.175 1465.8 628.753 1447.84 618.128C1429.87 607.504 1411.9 596.879 1407.81 594.428C1403.73 591.977 1391.63 584.785 1380.85 578.41C1370.07 572.198 1348.02 559.286 1331.84 549.97C1315.67 540.489 1284.14 522.02 1261.6 508.78C1239.22 495.377 1213.4 480.34 1204.42 475.109C1195.43 469.879 1177.46 459.419 1164.39 451.9C1151.32 444.218 1137.44 436.209 1133.35 433.921C1129.26 431.632 1115.7 423.787 1103.12 416.268C1090.55 408.913 1073.23 398.779 1064.74 393.711C1056.24 388.809 1046.6 383.251 1043.5 381.453C1040.39 379.655 1033.04 375.405 1027.16 372.136C1021.28 368.704 1009.52 362.002 1001.02 357.1C992.527 352.196 977.334 343.533 967.531 337.812C957.729 332.091 943.352 324.245 935.674 320.323C927.997 316.4 920.971 313.295 920.155 313.295C919.338 313.458 915.254 314.766 911.169 316.401C907.085 317.872 894.996 323.919 884.214 329.64ZM262.269 764.906C261.288 790.895 261.125 919.529 261.616 1092.13C262.269 1248.56 263.249 1383.73 263.902 1392.39L265.046 1408.24C276.482 1420.01 287.918 1428.34 297.72 1434.39C307.521 1440.61 327.779 1452.54 342.646 1461.04C357.513 1469.53 383.978 1484.9 401.459 1495.04C418.939 1505.17 443.935 1519.71 457.004 1527.4C470.074 1535.08 486.901 1545.05 494.579 1549.46C502.257 1554.04 512.55 1559.93 517.451 1562.87C522.352 1565.65 555.516 1585.1 590.967 1606.18C626.417 1627.1 671.671 1653.91 691.438 1665.51C711.206 1677.12 735.874 1691.5 746.167 1697.38C756.459 1703.27 773.286 1712.42 783.252 1717.65C799.588 1725.99 801.875 1726.8 802.856 1724.36C803.509 1722.72 804.326 1566.95 804.489 1378.17C804.98 1103.9 804.653 1034.43 803.019 1032.8C801.876 1031.49 795.83 1027.41 789.459 1023.65C783.088 1019.72 754.825 1002.56 726.562 985.564C698.3 968.4 648.636 938.817 616.289 919.693C583.942 900.569 548.981 879.974 538.688 873.927C528.396 867.88 506.668 855.13 490.495 845.814C474.321 836.333 457.821 826.854 453.737 824.566C449.652 822.277 437.564 815.249 426.781 809.037C415.998 802.826 390.186 787.789 369.602 775.857C349.018 763.925 325.002 750.032 316.507 745.128C308.012 740.226 294.779 733.034 287.101 728.947C279.422 724.861 271.581 720.938 269.457 720.121C267.333 719.304 265.536 719.467 264.882 720.447C264.229 721.429 263.085 741.369 262.269 764.906Z" fill="white" fill-opacity="0.12"/>
</g>
<path fill-rule="evenodd" clip-rule="evenodd" d="M922.605 0.125269C928.976 0.452168 935.184 2.57701 943.843 6.8267C950.541 10.2591 964.264 17.7778 974.066 23.662C983.868 29.3827 998.571 38.0456 1006.74 42.7856C1014.91 47.5256 1031.57 57.3327 1043.99 64.6879C1056.24 72.0431 1066.69 77.9273 1067.19 77.9273C1067.68 77.9273 1069.96 79.2349 1072.58 81.0328C1075.02 82.6673 1084.34 88.2246 1093.32 93.455C1102.31 98.6854 1120.28 109.147 1133.35 116.828C1146.42 124.51 1159.66 132.356 1162.75 134.317C1165.86 136.279 1178.44 143.798 1190.53 150.989C1202.62 158.181 1224.84 171.584 1240.03 180.737C1255.06 189.727 1267.8 197.246 1268.46 197.246C1269.27 197.246 1277.11 201.659 1286.1 206.889C1295.09 212.12 1305.7 218.168 1309.79 220.455C1313.87 222.743 1326.29 229.935 1337.56 236.474C1348.83 243.011 1368.27 254.452 1380.85 261.808C1393.43 269.163 1424.64 287.47 1450.28 302.67C1475.94 317.708 1507.46 336.505 1520.54 344.351C1533.61 352.196 1549.45 361.513 1555.66 365.108C1561.86 368.704 1576.24 377.04 1587.52 383.578C1598.79 390.116 1614.15 398.942 1621.82 403.192C1629.5 407.442 1653.36 421.008 1674.92 433.43C1696.49 445.853 1719.35 459.091 1725.56 462.851C1731.77 466.774 1739.61 471.351 1742.72 473.149C1745.82 474.947 1760.53 483.283 1775.39 491.782C1790.25 500.281 1807.57 510.088 1813.79 513.521C1819.99 516.953 1831.1 523.491 1838.29 528.231C1845.48 532.808 1855.28 540 1869 551.114L1868.02 1043.91C1867.53 1314.92 1866.39 1544.89 1864.42 1573.33L1857.89 1580.03C1854.3 1583.79 1845.15 1590.33 1837.47 1594.57C1829.79 1598.99 1807.74 1611.9 1788.46 1623.35C1769.19 1634.79 1747.12 1647.86 1739.45 1652.27C1731.77 1656.85 1711.18 1668.62 1693.71 1678.59C1676.22 1688.39 1653.68 1701.31 1643.87 1707.2C1634.07 1713.08 1623.79 1719.12 1621.01 1720.59C1618.23 1722.06 1612.02 1725.66 1607.12 1728.6C1602.22 1731.55 1596.99 1734.49 1595.68 1735.3C1594.38 1736.12 1586.69 1740.54 1578.53 1745.28C1570.36 1749.86 1549.12 1762.27 1531.15 1772.57C1513.18 1782.87 1491.94 1795.13 1483.77 1799.86C1475.61 1804.44 1456.5 1815.56 1441.3 1824.39C1426.11 1833.05 1396.7 1850.37 1375.96 1862.8C1355.2 1875.05 1309.29 1902.03 1273.85 1922.46C1238.39 1942.89 1193.47 1968.87 1174.19 1980.16C1154.91 1991.43 1125.84 2008.44 1109.67 2018.07C1093.49 2027.71 1068.16 2042.59 1053.3 2051.1C1038.43 2059.59 1017.85 2071.36 1007.56 2076.92C997.265 2082.64 981.417 2091.3 972.433 2096.04C963.447 2100.95 951.685 2107.15 936.492 2115L927.506 2111.4C922.605 2109.28 906.758 2101.43 892.382 2093.59C878.005 2085.91 859.708 2075.78 851.54 2071.2C843.371 2066.45 833.569 2060.9 829.485 2058.61C825.4 2056.32 807.757 2046.19 790.276 2036.06C772.796 2025.92 750.741 2013 741.266 2007.45C731.791 2001.89 707.939 1987.84 688.17 1976.39C668.403 1964.79 623.967 1938.97 589.332 1918.7C554.699 1898.59 525.619 1881.43 524.802 1880.77C523.985 1880.12 519.901 1877.68 515.816 1875.55C511.733 1873.26 498.173 1865.25 485.593 1857.89C473.014 1850.37 451.286 1837.79 437.4 1829.61C423.513 1821.61 399.988 1807.88 385.122 1799.05C370.255 1790.39 346.404 1776.34 332.027 1767.99C317.651 1759.66 292.655 1745.12 276.482 1735.63C260.308 1726.16 238.58 1713.56 228.288 1707.52C217.995 1701.48 206.559 1694.93 202.966 1692.81C199.372 1690.69 188.753 1684.47 179.277 1678.92C169.802 1673.36 155.098 1664.7 146.603 1659.79C138.108 1654.72 107.232 1636.42 77.9887 1619.1C48.7457 1601.76 20.4829 1584.61 15.2551 1581C8.55698 1576.44 4.96286 1572.84 3.98265 1569.4C3.32918 1566.62 1.85886 1521.84 1.04201 1469.7C0.0618013 1412.66 -0.264936 1214.39 0.22517 972.814C0.715276 697.401 1.53211 565.825 2.83907 555.2C3.81928 546.701 5.45297 538.692 6.59655 537.385C7.57676 536.076 17.7056 529.048 28.9781 521.693C40.2505 514.337 67.8598 497.339 90.2413 483.772C112.786 470.37 148.4 449.121 169.475 436.699C190.55 424.277 210.154 412.835 212.768 411.364C215.382 409.893 233.843 398.942 253.61 387.338C273.377 375.569 293.635 363.637 298.537 360.695C303.438 357.753 328.106 343.206 353.265 328.333C378.424 313.458 406.686 296.786 416.162 291.229C425.637 285.672 441.484 276.355 451.286 270.47C461.088 264.75 493.926 245.463 523.985 227.647C554.045 209.831 581.981 193.16 586.066 190.707C590.149 188.256 609.918 176.487 630.175 164.555C650.433 152.624 681.963 133.827 700.424 122.876C718.884 111.925 753.682 91.1668 778.024 76.7832C802.365 62.3996 838.307 41.1511 858.074 29.3827C877.842 17.6144 896.466 6.8267 899.406 5.19221C902.347 3.55772 906.758 1.59632 909.209 0.942517C911.66 0.125269 917.704 -0.201631 922.605 0.125269ZM884.214 329.64C873.431 335.361 851.703 347.293 836.019 356.282C820.337 365.272 798.608 377.694 787.826 384.068C777.043 390.443 748.454 407.442 724.112 421.989C699.77 436.536 672.977 452.39 664.482 457.458C655.987 462.361 639.813 471.841 628.541 478.379C617.269 484.917 601.095 494.397 592.6 499.301C584.105 504.367 568.912 513.194 559.11 518.914C549.307 524.798 537.382 532.644 532.644 536.24C527.906 540 524.149 543.759 523.985 544.576C523.985 545.557 527.253 549.316 531.337 553.239C535.421 556.998 546.204 565.007 555.516 571.055C564.664 577.102 588.843 592.14 609.263 604.562C629.849 616.985 646.839 627.118 647.328 627.118C647.819 627.118 652.72 629.897 658.275 633.492C663.992 636.925 676.735 644.444 686.537 650.328C696.339 656.213 710.062 664.057 716.76 667.98C723.458 671.903 741.43 682.364 756.785 691.353C772.142 700.343 802.529 718.323 824.584 731.399C846.639 744.475 882.579 766.05 904.634 779.126C926.689 792.366 961.814 813.123 982.725 825.546C1003.47 837.804 1020.79 847.776 1021.12 847.776C1021.28 847.776 1028.79 851.862 1037.78 856.764C1046.77 861.832 1057.22 869.024 1060.97 872.783C1066.21 878.014 1068.49 881.609 1069.8 887.82C1070.78 892.561 1072.08 932.442 1072.9 982.621C1073.72 1030.35 1074.38 1194.62 1074.54 1347.93C1074.54 1501.25 1075.35 1647.2 1076.18 1672.38C1076.99 1697.55 1078.29 1718.64 1078.95 1719.28C1079.6 1719.94 1084.01 1719.12 1088.43 1717.65C1092.99 1716.19 1103.62 1710.95 1112.11 1706.05C1120.61 1701.31 1141.52 1689.05 1158.67 1678.92C1175.83 1668.78 1198.87 1655.22 1210.14 1648.67C1221.4 1642.14 1237.58 1632.82 1246.08 1627.76C1254.57 1622.85 1266.82 1615.66 1273.03 1611.9C1279.24 1608.14 1299.17 1596.37 1317.14 1585.75C1335.11 1575.13 1356.84 1562.37 1365.33 1557.15C1373.83 1552.08 1390.01 1542.44 1401.27 1535.9C1412.54 1529.36 1432.31 1517.59 1445.39 1510.07C1458.45 1502.39 1476.75 1491.6 1486.22 1486.04C1495.71 1480.49 1512.53 1470.69 1523.81 1464.14C1535.07 1457.45 1548.64 1449.6 1554.03 1446.33C1559.42 1443.22 1569.71 1436.85 1576.89 1432.11C1584.08 1427.2 1593.57 1419.85 1597.8 1415.43L1605.65 1407.59C1604.18 1192.33 1603.52 1065 1603.04 985.89C1602.54 906.78 1601.73 814.921 1601.4 781.578C1600.91 748.398 1599.93 717.832 1599.27 713.91C1598.3 707.372 1597.32 706.064 1589.15 700.998C1584.25 697.892 1564.31 686.123 1545.04 674.846C1525.76 663.73 1503.38 650.654 1495.21 645.915C1487.04 641.175 1465.8 628.753 1447.84 618.128C1429.87 607.504 1411.9 596.879 1407.81 594.428C1403.73 591.977 1391.63 584.785 1380.85 578.41C1370.07 572.198 1348.02 559.286 1331.84 549.97C1315.67 540.489 1284.14 522.02 1261.6 508.78C1239.22 495.377 1213.4 480.34 1204.42 475.109C1195.43 469.879 1177.46 459.419 1164.39 451.9C1151.32 444.218 1137.44 436.209 1133.35 433.921C1129.26 431.632 1115.7 423.787 1103.12 416.268C1090.55 408.913 1073.23 398.779 1064.74 393.711C1056.24 388.809 1046.6 383.251 1043.5 381.453C1040.39 379.655 1033.04 375.405 1027.16 372.136C1021.28 368.704 1009.52 362.002 1001.02 357.1C992.527 352.196 977.334 343.533 967.531 337.812C957.729 332.091 943.352 324.245 935.674 320.323C927.997 316.4 920.971 313.295 920.155 313.295C919.338 313.458 915.254 314.766 911.169 316.401C907.085 317.872 894.996 323.919 884.214 329.64ZM262.269 764.906C261.288 790.895 261.125 919.529 261.616 1092.13C262.269 1248.56 263.249 1383.73 263.902 1392.39L265.046 1408.24C276.482 1420.01 287.918 1428.34 297.72 1434.39C307.521 1440.61 327.779 1452.54 342.646 1461.04C357.513 1469.53 383.978 1484.9 401.459 1495.04C418.939 1505.17 443.935 1519.71 457.004 1527.4C470.074 1535.08 486.901 1545.05 494.579 1549.46C502.257 1554.04 512.55 1559.93 517.451 1562.87C522.352 1565.65 555.516 1585.1 590.967 1606.18C626.417 1627.1 671.671 1653.91 691.438 1665.51C711.206 1677.12 735.874 1691.5 746.167 1697.38C756.459 1703.27 773.286 1712.42 783.252 1717.65C799.588 1725.99 801.875 1726.8 802.856 1724.36C803.509 1722.72 804.326 1566.95 804.489 1378.17C804.98 1103.9 804.653 1034.43 803.019 1032.8C801.876 1031.49 795.83 1027.41 789.459 1023.65C783.088 1019.72 754.825 1002.56 726.562 985.564C698.3 968.4 648.636 938.817 616.289 919.693C583.942 900.569 548.981 879.974 538.688 873.927C528.396 867.88 506.668 855.13 490.495 845.814C474.321 836.333 457.821 826.854 453.737 824.566C449.652 822.277 437.564 815.249 426.781 809.037C415.998 802.826 390.186 787.789 369.602 775.857C349.018 763.925 325.002 750.032 316.507 745.128C308.012 740.226 294.779 733.034 287.101 728.947C279.422 724.861 271.581 720.938 269.457 720.121C267.333 719.304 265.536 719.467 264.882 720.447C264.229 721.429 263.085 741.369 262.269 764.906Z" stroke="white" stroke-opacity="0.24" stroke-width="8" mask="url(#path-1-inside-1_1_453)"/>
<defs>
<filter id="filter0_i_1_453" x="0" y="0" width="1869" height="2115" filterUnits="userSpaceOnUse" color-interpolation-filters="sRGB">
<feFlood flood-opacity="0" result="BackgroundImageFix"/>
<feBlend mode="normal" in="SourceGraphic" in2="BackgroundImageFix" result="shape"/>
<feColorMatrix in="SourceAlpha" type="matrix" values="0 0 0 0 0 0 0 0 0 0 0 0 0 0 0 0 0 0 127 0" result="hardAlpha"/>
<feOffset/>
<feGaussianBlur stdDeviation="24"/>
<feComposite in2="hardAlpha" operator="arithmetic" k2="-1" k3="1"/>
<feColorMatrix type="matrix" values="0 0 0 0 1 0 0 0 0 1 0 0 0 0 1 0 0 0 0.24 0"/>
<feBlend mode="normal" in2="shape" result="effect1_innerShadow_1_453"/>
</filter>
</defs>
</svg>
